<svg width="373" height="90" viewBox="0 0 373 90" fill="none" xmlns="http://www.w3.org/2000/svg">
<g filter="url(#filter0_d_101_9)">
<path d="M41 25.33C41 25.8823 40.5523 26.33 40 26.33L32.2361 26.33C32.0808 26.33 31.9277 26.2939 31.7889 26.2244L29.4472 25.0536C29.1657 24.9129 28.8343 24.9129 28.5528 25.0536L26.2111 26.2244C26.0723 26.2939 25.9192 26.33 25.7639 26.33L17.2361 26.33C17.0808 26.33 16.9277 26.2939 16.7889 26.2244L14.4472 25.0536C14.1657 24.9129 13.8343 24.9129 13.5528 25.0536L11.2111 26.2244C11.0723 26.2939 10.9192 26.33 10.7639 26.33L3 26.33C2.44772 26.33 2 25.8823 2 25.33V19C2 18.4477 2.44772 18 3 18L40 18C40.5523 18 41 18.4477 41 19V25.33Z" fill="white"/>
<path d="M41 25.33C41 25.8823 40.5523 26.33 40 26.33L32.2361 26.33C32.0808 26.33 31.9277 26.2939 31.7889 26.2244L29.4472 25.0536C29.1657 24.9129 28.8343 24.9129 28.5528 25.0536L26.2111 26.2244C26.0723 26.2939 25.9192 26.33 25.7639 26.33L17.2361 26.33C17.0808 26.33 16.9277 26.2939 16.7889 26.2244L14.4472 25.0536C14.1657 24.9129 13.8343 24.9129 13.5528 25.0536L11.2111 26.2244C11.0723 26.2939 10.9192 26.33 10.7639 26.33L3 26.33C2.44772 26.33 2 25.8823 2 25.33V19C2 18.4477 2.44772 18 3 18L40 18C40.5523 18 41 18.4477 41 19V25.33Z" fill="white"/>
<path d="M33 68.33C32.4477 68.33 32 67.8823 32 67.33L32 19.33C32 18.7777 32.4477 18.33 33 18.33H40C40.5523 18.33 41 18.7777 41 19.33L41 67.33C41 67.8823 40.5523 68.33 40 68.33H33Z" fill="white"/>
<path d="M33 68.33C32.4477 68.33 32 67.8823 32 67.33L32 19.33C32 18.7777 32.4477 18.33 33 18.33H40C40.5523 18.33 41 18.7777 41 19.33L41 67.33C41 67.8823 40.5523 68.33 40 68.33H33Z" fill="white"/>
<path d="M18 57.2189C17.4477 57.2189 17 56.7712 17 56.2189L17 19.33C17 18.7777 17.4477 18.33 18 18.33H25C25.5523 18.33 26 18.7777 26 19.33L26 56.2189C26 56.7712 25.5523 57.2189 25 57.2189H18Z" fill="white"/>
<path d="M18 57.2189C17.4477 57.2189 17 56.7712 17 56.2189L17 19.33C17 18.7777 17.4477 18.33 18 18.33H25C25.5523 18.33 26 18.7777 26 19.33L26 56.2189C26 56.7712 25.5523 57.2189 25 57.2189H18Z" fill="white"/>
<path d="M3 46.1078C2.44772 46.1078 2 45.6601 2 45.1078L2 19.33C2 18.7777 2.44772 18.33 3 18.33H10C10.5523 18.33 11 18.7777 11 19.33L11 45.1078C11 45.6601 10.5523 46.1078 10 46.1078H3Z" fill="white"/>
<path d="M3 46.1078C2.44772 46.1078 2 45.6601 2 45.1078L2 19.33C2 18.7777 2.44772 18.33 3 18.33H10C10.5523 18.33 11 18.7777 11 19.33L11 45.1078C11 45.6601 10.5523 46.1078 10 46.1078H3Z" fill="white"/>
<path d="M47.24 68C47 68 46.88 67.88 46.88 67.64L46.952 18.176C46.952 17.984 47.048 17.888 47.24 17.888H55.304C55.496 17.888 55.592 17.984 55.592 18.176L55.664 67.64C55.664 67.88 55.568 68 55.376 68H47.24ZM62.6452 68C62.2612 68 62.0692 67.832 62.0692 67.496L61.9972 18.464C61.9972 18.08 62.1892 17.888 62.5732 17.888H69.0532L81.2212 46.256L80.8612 18.464C80.8612 18.08 81.0772 17.888 81.5092 17.888H88.6372C88.9252 17.888 89.0692 18.08 89.0692 18.464L89.1412 67.568C89.1412 67.856 89.0212 68 88.7812 68H82.4452L69.9892 41.504L70.4932 67.424C70.4932 67.808 70.2772 68 69.8452 68H62.6452ZM95.7556 68C95.5156 68 95.3956 67.88 95.3956 67.64L95.4676 18.176C95.4676 17.984 95.5636 17.888 95.7556 17.888H103.82C104.012 17.888 104.108 17.984 104.108 18.176L104.18 67.64C104.18 67.88 104.084 68 103.892 68H95.7556ZM121.56 68C121.32 68 121.2 67.88 121.2 67.64L121.344 18.176C121.344 17.984 121.44 17.888 121.632 17.888H135.456C139.872 17.888 143.352 19.232 145.896 21.92C148.488 24.608 149.784 28.256 149.784 32.864C149.784 36.272 149.112 39.224 147.768 41.72C146.424 44.216 144.672 46.136 142.512 47.48C140.352 48.824 138 49.496 135.456 49.496H129.984V67.64C129.984 67.88 129.864 68 129.624 68H121.56ZM129.984 40.784H135.456C136.992 40.784 138.312 40.064 139.416 38.624C140.568 37.136 141.144 35.216 141.144 32.864C141.144 30.992 140.64 29.456 139.632 28.256C138.624 27.056 137.232 26.456 135.456 26.456L129.984 26.528V40.784ZM154.395 68C154.203 68 154.107 67.88 154.107 67.64L154.251 18.176C154.251 17.984 154.347 17.888 154.539 17.888H169.083C171.675 17.888 174.051 18.536 176.211 19.832C178.419 21.08 180.171 22.784 181.467 24.944C182.763 27.056 183.411 29.456 183.411 32.144C183.411 33.92 183.147 35.528 182.619 36.968C182.091 38.36 181.467 39.56 180.747 40.568C180.027 41.528 179.379 42.248 178.803 42.728C181.395 45.608 182.691 48.992 182.691 52.88L182.763 67.64C182.763 67.88 182.643 68 182.403 68H174.267C174.075 68 173.979 67.928 173.979 67.784V52.88C173.979 51.152 173.355 49.664 172.107 48.416C170.907 47.12 169.419 46.472 167.643 46.472H162.891L162.819 67.64C162.819 67.88 162.723 68 162.531 68H154.395ZM162.891 37.832H169.083C170.571 37.832 171.891 37.28 173.043 36.176C174.195 35.072 174.771 33.728 174.771 32.144C174.771 30.608 174.195 29.288 173.043 28.184C171.939 27.08 170.619 26.528 169.083 26.528H162.891V37.832ZM201.809 68.72C199.217 68.72 196.841 68.072 194.681 66.776C192.569 65.432 190.865 63.68 189.569 61.52C188.273 59.312 187.625 56.888 187.625 54.248L187.697 31.424C187.697 28.784 188.321 26.384 189.569 24.224C190.865 22.064 192.593 20.336 194.753 19.04C196.913 17.744 199.265 17.096 201.809 17.096C204.401 17.096 206.753 17.744 208.865 19.04C210.977 20.336 212.657 22.064 213.905 24.224C215.201 26.384 215.849 28.784 215.849 31.424L215.921 54.248C215.921 56.888 215.273 59.312 213.977 61.52C212.729 63.68 211.025 65.432 208.865 66.776C206.753 68.072 204.401 68.72 201.809 68.72ZM201.809 60.008C203.249 60.008 204.497 59.432 205.553 58.28C206.657 57.08 207.209 55.736 207.209 54.248L207.137 31.424C207.137 29.84 206.633 28.496 205.625 27.392C204.617 26.288 203.345 25.736 201.809 25.736C200.321 25.736 199.049 26.288 197.993 27.392C196.937 28.448 196.409 29.792 196.409 31.424V54.248C196.409 55.832 196.937 57.2 197.993 58.352C199.049 59.456 200.321 60.008 201.809 60.008ZM233.204 68.72C230.516 68.72 228.092 68.096 225.932 66.848C223.82 65.552 222.14 63.8 220.892 61.592C219.692 59.336 219.092 56.816 219.092 54.032V50.72C219.092 50.528 219.188 50.432 219.38 50.432H227.516C227.708 50.432 227.804 50.552 227.804 50.792V54.032C227.804 55.808 228.308 57.248 229.316 58.352C230.324 59.456 231.62 60.008 233.204 60.008C234.644 60.008 235.892 59.408 236.948 58.208C238.004 57.008 238.532 55.616 238.532 54.032V18.248C238.532 18.056 238.628 17.96 238.82 17.96H246.884C247.076 17.96 247.172 18.08 247.172 18.32L247.244 54.032C247.244 56.672 246.596 59.12 245.3 61.376C244.052 63.584 242.372 65.36 240.26 66.704C238.148 68.048 235.796 68.72 233.204 68.72ZM252.973 68C252.781 68 252.685 67.88 252.685 67.64L252.757 18.176C252.757 17.984 252.853 17.888 253.045 17.888H276.157C276.349 17.888 276.445 18.008 276.445 18.248V26.312C276.445 26.504 276.349 26.6 276.157 26.6H261.397V37.832H276.157C276.349 37.832 276.445 37.928 276.445 38.12L276.517 46.256C276.517 46.448 276.421 46.544 276.229 46.544H261.397V59.144H276.229C276.421 59.144 276.517 59.264 276.517 59.504V67.712C276.517 67.904 276.421 68 276.229 68H252.973ZM295.042 68.72C292.402 68.72 290.002 68.072 287.842 66.776C285.73 65.432 284.05 63.656 282.802 61.448C281.554 59.24 280.93 56.768 280.93 54.032L281.002 31.568C281.002 28.928 281.602 26.528 282.802 24.368C284.05 22.16 285.73 20.408 287.842 19.112C290.002 17.768 292.402 17.096 295.042 17.096C297.682 17.096 300.058 17.744 302.17 19.04C304.282 20.336 305.962 22.088 307.21 24.296C308.458 26.456 309.082 28.88 309.082 31.568V34.88C309.082 35.072 308.986 35.168 308.794 35.168H300.73C300.538 35.168 300.442 35.072 300.442 34.88V31.568C300.442 29.984 299.914 28.616 298.858 27.464C297.85 26.312 296.578 25.736 295.042 25.736C293.314 25.736 291.994 26.336 291.082 27.536C290.17 28.688 289.714 30.032 289.714 31.568V54.032C289.714 55.808 290.218 57.248 291.226 58.352C292.282 59.456 293.554 60.008 295.042 60.008C296.578 60.008 297.85 59.408 298.858 58.208C299.914 56.96 300.442 55.568 300.442 54.032V50.72C300.442 50.528 300.538 50.432 300.73 50.432H308.866C309.058 50.432 309.154 50.528 309.154 50.72V54.032C309.154 56.768 308.506 59.24 307.21 61.448C305.962 63.656 304.282 65.432 302.17 66.776C300.058 68.072 297.682 68.72 295.042 68.72ZM320.705 68C320.513 68 320.417 67.88 320.417 67.64V26.6H311.057C310.817 26.6 310.697 26.48 310.697 26.24L310.769 18.176C310.769 17.984 310.865 17.888 311.057 17.888H338.417C338.657 17.888 338.777 17.984 338.777 18.176V26.24C338.777 26.48 338.681 26.6 338.489 26.6H329.057L329.129 67.64C329.129 67.88 329.033 68 328.841 68H320.705ZM354.222 68.72C351.63 68.72 349.254 68.072 347.094 66.776C344.982 65.432 343.278 63.68 341.982 61.52C340.734 59.312 340.11 56.888 340.11 54.248V50.936C340.11 50.696 340.23 50.576 340.47 50.576H348.534C348.726 50.576 348.822 50.696 348.822 50.936V54.248C348.822 55.832 349.35 57.2 350.406 58.352C351.462 59.456 352.734 60.008 354.222 60.008C355.71 60.008 356.982 59.432 358.038 58.28C359.094 57.128 359.622 55.784 359.622 54.248C359.622 52.472 358.47 50.936 356.166 49.64C355.398 49.208 354.198 48.536 352.566 47.624C350.934 46.712 349.398 45.848 347.958 45.032C345.318 43.496 343.35 41.576 342.054 39.272C340.806 36.92 340.182 34.28 340.182 31.352C340.182 28.664 340.83 26.264 342.126 24.152C343.422 21.992 345.126 20.288 347.238 19.04C349.398 17.792 351.726 17.168 354.222 17.168C356.766 17.168 359.094 17.816 361.206 19.112C363.366 20.36 365.07 22.064 366.318 24.224C367.614 26.336 368.262 28.712 368.262 31.352V37.256C368.262 37.448 368.166 37.544 367.974 37.544H359.91C359.718 37.544 359.622 37.448 359.622 37.256L359.55 31.352C359.55 29.672 359.022 28.304 357.966 27.248C356.91 26.192 355.662 25.664 354.222 25.664C352.734 25.664 351.462 26.24 350.406 27.392C349.35 28.496 348.822 29.816 348.822 31.352C348.822 32.936 349.158 34.256 349.83 35.312C350.502 36.368 351.726 37.376 353.502 38.336C353.742 38.48 354.198 38.744 354.87 39.128C355.59 39.464 356.358 39.872 357.174 40.352C357.99 40.784 358.71 41.168 359.334 41.504C360.006 41.84 360.414 42.056 360.558 42.152C362.958 43.496 364.854 45.152 366.246 47.12C367.638 49.04 368.334 51.416 368.334 54.248C368.334 56.984 367.686 59.456 366.39 61.664C365.142 63.824 363.438 65.552 361.278 66.848C359.166 68.096 356.814 68.72 354.222 68.72Z" fill="white"/>
</g>
<defs>
<filter id="filter0_d_101_9" x="0" y="-2" width="375" height="96" filterUnits="userSpaceOnUse" color-interpolation-filters="sRGB">
<feFlood flood-opacity="0" result="BackgroundImageFix"/>
<feColorMatrix in="SourceAlpha" type="matrix" values="0 0 0 0 0 0 0 0 0 0 0 0 0 0 0 0 0 0 127 0" result="hardAlpha"/>
<feOffset dx="1" dy="1"/>
<feGaussianBlur stdDeviation="1.5"/>
<feComposite in2="hardAlpha" operator="out"/>
<feColorMatrix type="matrix" values="0 0 0 0 0 0 0 0 0 0 0 0 0 0 0 0 0 0 0.4 0"/>
<feBlend mode="normal" in2="BackgroundImageFix" result="effect1_dropShadow_101_9"/>
<feBlend mode="normal" in="SourceGraphic" in2="effect1_dropShadow_101_9" result="shape"/>
</filter>
</defs>
</svg>
